# xmcd
#
# Track frame offsets: 
#        150
#        23544
#        46488
#        61049
#        79298
#        88667
#
# Disc length: 1469 seconds
#
# Revision: 2
# Processed by: cddbd v1.5.2PL0 Copyright (c) Steve Scherf et al.
# Submitted via: ExactAudioCopyFreeDBPlugin 1.0
#
DISCID=3e05bb06
DTITLE=Elefent - Burials
DYEAR=2018
DGENRE=Folk
TTITLE0=Dancing to my burial
TTITLE1=The client is king
TTITLE2=The guideline
TTITLE3=Sundown
TTITLE4=Ain't no more
TTITLE5=We'll make this ego yield
EXTD=
EXTT0=
EXTT1=
EXTT2=
EXTT3=
EXTT4=
EXTT5=
PLAYORDER=
